<svg viewBox="0 0 20 20" fill="none" xmlns="http://www.w3.org/2000/svg">
<path fill-rule="evenodd" clip-rule="evenodd" d="M5.83248 5.83366V5.83374H4.33618C3.90353 5.83374 3.54284 6.16484 3.5059 6.59591L2.57732 17.4292C2.53562 17.9158 2.9193 18.3337 3.40761 18.3337H16.592C17.0803 18.3337 17.464 17.9158 17.4223 17.4292L16.4937 6.59591C16.4567 6.16484 16.0961 5.83374 15.6634 5.83374H14.1658V5.83366C14.1658 3.53247 12.3003 1.66699 9.99914 1.66699C7.69796 1.66699 5.83248 3.53247 5.83248 5.83366ZM7.49914 5.83366V5.83374H12.4991V5.83366C12.4991 4.45295 11.3799 3.33366 9.99914 3.33366C8.61843 3.33366 7.49914 4.45295 7.49914 5.83366ZM9.99786 12.5003C12.2816 12.5003 14.1361 10.6631 14.1642 8.38604C14.1653 8.36872 14.1658 8.35125 14.1658 8.33366C14.1658 7.87342 13.7927 7.50033 13.3325 7.50033C12.8722 7.50033 12.4992 7.87342 12.4992 8.33366V8.33374H12.4979C12.4978 9.71441 11.3785 10.8337 9.99786 10.8337C8.63071 10.8337 7.51988 9.73626 7.49818 8.37428C7.49883 8.36082 7.49915 8.34728 7.49915 8.33366C7.49915 7.87342 7.12606 7.50033 6.66582 7.50033C6.20558 7.50033 5.83248 7.87342 5.83248 8.33366V8.33374H5.83184V8.25942C5.83141 8.28412 5.83119 8.30886 5.83119 8.33366C5.83119 10.6348 7.69667 12.5003 9.99786 12.5003Z" fill="#586A84"/>
</svg>
