<svg viewBox="0 0 30 30" fill="none" xmlns="http://www.w3.org/2000/svg">
<path d="M18.3337 10.8333C18.3337 12.6742 16.8412 14.1667 15.0003 14.1667C13.1594 14.1667 11.667 12.6742 11.667 10.8333C11.667 8.99251 13.1594 7.5 15.0003 7.5C16.8412 7.5 18.3337 8.99251 18.3337 10.8333Z" fill="#586A84"/>
<path d="M9.16699 20.8333C9.16699 17.6123 11.7787 15 15.0003 15C18.222 15 20.8337 17.6123 20.8337 20.8333V21.6667C20.8337 22.1273 20.4605 22.5 20.0003 22.5H10.0003C9.76809 22.5 9.55802 22.404 9.40686 22.251C9.3206 22.1631 9.25346 22.0573 9.21246 21.9385C9.18296 21.8538 9.16699 21.7627 9.16699 21.6667V20.8333Z" fill="#586A84"/>
</svg>
