<svg viewBox="0 0 30 30" fill="none" xmlns="http://www.w3.org/2000/svg">
<path fill-rule="evenodd" clip-rule="evenodd" d="M23.1258 10.2944C23.2886 10.1317 23.2886 9.86789 23.1258 9.70517L20.7984 7.37776C20.5359 7.11527 20.0871 7.30117 20.0871 7.67239L20.0871 9.16646H17.5871V9.16662H17.5866C16.5279 9.16662 15.5615 9.56144 14.8265 10.2119C15.1881 10.6639 15.473 11.18 15.6612 11.7405C16.1196 11.1865 16.8123 10.8335 17.5875 10.8333V10.8331H20.0871L20.0871 12.3272C20.0871 12.6984 20.5359 12.8843 20.7984 12.6218L23.1258 10.2944ZM23.1258 19.7052L20.7984 17.3778C20.5359 17.1153 20.0871 17.3012 20.0871 17.6724L20.0871 19.1665H17.5871C16.2072 19.1656 15.0888 18.0466 15.0888 16.6665L15.0871 16.6665V13.3331C15.0871 11.032 13.2217 9.16646 10.9205 9.16646H7.58714C7.1269 9.16646 6.75381 9.53956 6.75381 9.9998C6.75381 10.46 7.1269 10.8331 7.58714 10.8331H10.9205C12.2872 10.8331 13.3978 11.9299 13.4201 13.2913C13.4201 13.2959 13.42 13.3004 13.42 13.305L13.4202 13.3332H13.4205V16.6665V16.6665H13.4202C13.4202 16.9519 13.4489 17.2306 13.5035 17.4998C13.6284 18.1153 13.889 18.6815 14.2527 19.1658L14.2528 19.1656C15.013 20.1781 16.2236 20.8331 17.5871 20.8331H20.0871L20.0871 22.3272C20.0871 22.6984 20.5359 22.8843 20.7984 22.6218L23.1258 20.2944C23.2886 20.1317 23.2886 19.8679 23.1258 19.7052ZM6.75381 19.9998C6.75381 19.5396 7.1269 19.1665 7.58714 19.1665H10.9196V19.1664C11.6947 19.1661 12.3874 18.813 12.8458 18.259C13.0339 18.8192 13.3184 19.335 13.6798 19.7869C12.9451 20.4375 11.9789 20.8326 10.9205 20.833V20.8331H7.58714C7.1269 20.8331 6.75381 20.46 6.75381 19.9998ZM6.75195 16.6664C6.75195 16.6964 6.75227 16.7264 6.7529 16.7563V16.5764C6.75227 16.6063 6.75195 16.6363 6.75195 16.6664ZM10.9186 12.4997L10.8999 12.4998H10.9196V14.1664H10.9199V12.4998H10.9449L10.9186 12.4997ZM17.5866 17.5L17.6051 17.4999H17.5875V15.8333H17.5872V17.4999H17.5606L17.5866 17.5Z" fill="#586A84"/>
</svg>
