<svg width="181" height="54" viewBox="0 0 181 54" fill="none" xmlns="http://www.w3.org/2000/svg">
<path d="M23.1669 27.2245C22.0998 26.8599 21.1296 26.4953 20.2565 26.1307C19.3834 25.7418 18.6315 25.28 18.0009 24.7453C17.3703 24.2106 16.8731 23.5787 16.5093 22.8495C16.1698 22.096 16 21.1846 16 20.1152C16 18.0492 16.7882 16.3964 18.3647 15.1569C19.9655 13.9173 22.1968 13.2975 25.0587 13.2975C26.1016 13.2975 27.0718 13.3704 27.9692 13.5163C28.8666 13.6621 29.6305 13.893 30.2611 14.209C30.916 14.5006 31.4253 14.8895 31.7891 15.3756C32.1529 15.8374 32.3348 16.3843 32.3348 17.0162C32.3348 17.6482 32.1893 18.195 31.8983 18.6568C31.6072 19.0943 31.2555 19.4711 30.8432 19.787C30.3096 19.4468 29.5942 19.1551 28.6968 18.912C27.7994 18.6447 26.8171 18.511 25.75 18.511C24.6585 18.511 23.8582 18.669 23.3488 18.985C22.8395 19.2766 22.5849 19.6534 22.5849 20.1152C22.5849 20.4797 22.7425 20.7835 23.0578 21.0266C23.3731 21.2453 23.846 21.4519 24.4766 21.6464L26.4048 22.2662C28.6846 22.9953 30.4309 23.9311 31.6436 25.0734C32.8805 26.1915 33.499 27.7227 33.499 29.6671C33.499 31.7331 32.6865 33.4102 31.0615 34.6983C29.4365 35.9622 27.0475 36.5942 23.8946 36.5942C22.7789 36.5942 21.736 36.4969 20.7658 36.3025C19.8199 36.1324 18.9832 35.8771 18.2556 35.5369C17.5522 35.1723 16.9944 34.7348 16.5821 34.2244C16.194 33.6897 16 33.082 16 32.4015C16 31.6966 16.2062 31.1012 16.6185 30.615C17.0308 30.1046 17.4795 29.7158 17.9645 29.4484C18.6436 29.9831 19.4683 30.4449 20.4384 30.8338C21.4328 31.2227 22.5121 31.4171 23.6763 31.4171C24.8647 31.4171 25.7015 31.2348 26.1865 30.8703C26.6716 30.5057 26.9141 30.0803 26.9141 29.5942C26.9141 29.1081 26.7201 28.7435 26.332 28.5005C25.944 28.2331 25.3983 27.9779 24.6949 27.7349L23.1669 27.2245Z" fill="#3B4758"/>
<path d="M53.9368 35.9744C53.6943 36.0473 53.3062 36.1202 52.7727 36.1931C52.2633 36.266 51.7298 36.3025 51.1719 36.3025C50.6384 36.3025 50.1533 36.266 49.7167 36.1931C49.3044 36.1202 48.9527 35.9744 48.6617 35.7556C48.3706 35.5369 48.1402 35.2452 47.9704 34.8806C47.8249 34.4917 47.7522 33.9935 47.7522 33.3859V25.2922C47.7522 24.2957 47.4975 23.603 46.9882 23.2141C46.5031 22.8009 45.8968 22.5943 45.1692 22.5943C44.6841 22.5943 44.2233 22.6551 43.7867 22.7766C43.3501 22.8981 42.9985 23.0439 42.7317 23.2141V35.9744C42.4891 36.0473 42.1011 36.1202 41.5675 36.1931C41.0582 36.266 40.5246 36.3025 39.9668 36.3025C39.4332 36.3025 38.9481 36.266 38.5115 36.1931C38.0992 36.1202 37.7475 35.9744 37.4565 35.7556C37.1655 35.5369 36.935 35.2452 36.7653 34.8806C36.6198 34.4917 36.547 33.9935 36.547 33.3859V12.2402C36.8138 12.1916 37.2018 12.1309 37.7112 12.0579C38.2447 11.9607 38.7783 11.9121 39.3119 11.9121C39.8455 11.9121 40.3184 11.9486 40.7307 12.0215C41.1673 12.0944 41.5311 12.2402 41.8222 12.459C42.1132 12.6777 42.3315 12.9815 42.477 13.3704C42.6468 13.735 42.7317 14.2211 42.7317 14.8287V18.4016C43.047 18.2801 43.5199 18.1464 44.1505 18.0006C44.8054 17.8305 45.5208 17.7454 46.2969 17.7454C48.6981 17.7454 50.5656 18.353 51.8995 19.5683C53.2577 20.7592 53.9368 22.5457 53.9368 24.9276V35.9744Z" fill="#3B4758"/>
<path d="M76.0547 27.1515C76.0547 28.6585 75.8243 30.0074 75.3635 31.1984C74.9027 32.365 74.2478 33.3494 73.399 34.1515C72.5743 34.9535 71.5799 35.5612 70.4158 35.9744C69.2516 36.3876 67.954 36.5942 66.5231 36.5942C65.0921 36.5942 63.7945 36.3754 62.6303 35.9379C61.4662 35.5004 60.4596 34.8806 59.6108 34.0786C58.7861 33.2522 58.1434 32.2557 57.6826 31.089C57.2218 29.9223 56.9914 28.6099 56.9914 27.1515C56.9914 25.7175 57.2218 24.4172 57.6826 23.2505C58.1434 22.0839 58.7861 21.0995 59.6108 20.2974C60.4596 19.4711 61.4662 18.8391 62.6303 18.4016C63.7945 17.9641 65.0921 17.7454 66.5231 17.7454C67.954 17.7454 69.2516 17.9763 70.4158 18.4381C71.5799 18.8756 72.5743 19.5075 73.399 20.3339C74.2478 21.136 74.9027 22.1203 75.3635 23.287C75.8243 24.4537 76.0547 25.7418 76.0547 27.1515ZM63.3216 27.1515C63.3216 28.6342 63.6005 29.7765 64.1583 30.5786C64.7404 31.3564 65.5408 31.7452 66.5594 31.7452C67.5781 31.7452 68.3542 31.3442 68.8878 30.5421C69.4456 29.7401 69.7245 28.6099 69.7245 27.1515C69.7245 25.6932 69.4456 24.5752 68.8878 23.7974C68.3299 22.9953 67.5417 22.5943 66.5231 22.5943C65.5044 22.5943 64.7162 22.9953 64.1583 23.7974C63.6005 24.5752 63.3216 25.6932 63.3216 27.1515Z" fill="#3B4758"/>
<path d="M87.1849 17.7454C88.6401 17.7454 89.9862 17.9398 91.2231 18.3287C92.4843 18.6933 93.5636 19.2645 94.461 20.0422C95.3583 20.82 96.0617 21.8044 96.571 22.9953C97.0804 24.162 97.335 25.5595 97.335 27.188C97.335 28.7435 97.1167 30.1046 96.6802 31.2713C96.2436 32.4379 95.6251 33.4223 94.8248 34.2244C94.0244 35.0022 93.0543 35.5855 91.9143 35.9744C90.7987 36.3633 89.5496 36.5577 88.1671 36.5577C87.1242 36.5577 86.1541 36.3997 85.2567 36.0837V42.1358C85.0142 42.2087 84.6261 42.2816 84.0925 42.3545C83.559 42.4517 83.0132 42.5003 82.4554 42.5003C81.9218 42.5003 81.4368 42.4639 81.0002 42.391C80.5879 42.3181 80.2362 42.1722 79.9452 41.9535C79.6541 41.7347 79.4358 41.4309 79.2903 41.042C79.1448 40.6774 79.072 40.1913 79.072 39.5837V22.0839C79.072 21.4276 79.2054 20.8929 79.4722 20.4797C79.7633 20.0665 80.1513 19.6898 80.6364 19.3495C81.3883 18.8634 82.322 18.4745 83.4377 18.1829C84.5534 17.8912 85.8024 17.7454 87.1849 17.7454ZM87.2576 31.6723C89.7558 31.6723 91.0048 30.1776 91.0048 27.188C91.0048 25.6325 90.6895 24.478 90.0589 23.7245C89.4526 22.971 88.5673 22.5943 87.4032 22.5943C86.9423 22.5943 86.53 22.6551 86.1662 22.7766C85.8024 22.8738 85.4871 22.9953 85.2203 23.1412V31.1619C85.5114 31.3077 85.8267 31.4293 86.1662 31.5265C86.5058 31.6237 86.8696 31.6723 87.2576 31.6723Z" fill="#3B4758"/>
<path d="M109.703 36.5942C108.272 36.5942 106.938 36.3997 105.701 36.0108C104.488 35.5976 103.421 34.99 102.5 34.1879C101.602 33.3859 100.887 32.3772 100.353 31.1619C99.8438 29.9467 99.5892 28.5248 99.5892 26.8963C99.5892 25.2922 99.8438 23.9189 100.353 22.7766C100.887 21.6099 101.578 20.662 102.427 19.9329C103.276 19.1794 104.246 18.6325 105.337 18.2923C106.429 17.9277 107.544 17.7454 108.684 17.7454C109.97 17.7454 111.134 17.9398 112.177 18.3287C113.244 18.7176 114.153 19.2523 114.905 19.9329C115.681 20.6134 116.276 21.4276 116.688 22.3755C117.125 23.3235 117.343 24.3564 117.343 25.4745C117.343 26.3009 117.112 26.9328 116.652 27.3703C116.191 27.8078 115.548 28.0873 114.723 28.2088L105.737 29.5578C106.004 30.3598 106.55 30.9675 107.375 31.3807C108.199 31.7696 109.145 31.964 110.212 31.964C111.207 31.964 112.14 31.8425 113.014 31.5994C113.911 31.3321 114.639 31.0282 115.196 30.688C115.584 30.931 115.912 31.2713 116.179 31.7088C116.445 32.1463 116.579 32.6081 116.579 33.0942C116.579 34.1879 116.07 35.0022 115.051 35.5369C114.275 35.9501 113.402 36.2296 112.431 36.3754C111.461 36.5212 110.552 36.5942 109.703 36.5942ZM108.684 22.2662C108.102 22.2662 107.593 22.3634 107.156 22.5578C106.744 22.7523 106.404 23.0075 106.138 23.3235C105.871 23.6151 105.665 23.9554 105.519 24.3443C105.398 24.7089 105.325 25.0856 105.301 25.4745L111.522 24.4537C111.449 23.9675 111.182 23.4814 110.722 22.9953C110.261 22.5092 109.582 22.2662 108.684 22.2662Z" fill="#3B4758"/>
<path d="M126.504 35.9744C126.262 36.0473 125.874 36.1202 125.34 36.1931C124.831 36.266 124.297 36.3025 123.74 36.3025C123.206 36.3025 122.721 36.266 122.284 36.1931C121.872 36.1202 121.52 35.9744 121.229 35.7556C120.938 35.5369 120.708 35.2452 120.538 34.8806C120.393 34.4917 120.32 33.9935 120.32 33.3859V22.4485C120.32 21.8894 120.417 21.4155 120.611 21.0266C120.829 20.6134 121.132 20.2488 121.52 19.9329C121.908 19.6169 122.381 19.3374 122.939 19.0943C123.521 18.827 124.14 18.5961 124.795 18.4016C125.449 18.2072 126.129 18.0614 126.832 17.9641C127.535 17.8426 128.239 17.7818 128.942 17.7818C130.106 17.7818 131.028 18.0127 131.707 18.4745C132.386 18.912 132.726 19.6412 132.726 20.662C132.726 21.0023 132.677 21.3426 132.58 21.6828C132.483 21.9988 132.362 22.2905 132.216 22.5578C131.707 22.5578 131.185 22.5821 130.652 22.6308C130.118 22.6794 129.597 22.7523 129.087 22.8495C128.578 22.9467 128.093 23.0561 127.632 23.1776C127.196 23.2748 126.82 23.3964 126.504 23.5422V35.9744Z" fill="#3B4758"/>
<path d="M136.002 36.0108C135.614 35.6706 135.299 35.2695 135.056 34.8077C134.838 34.3459 134.729 33.8233 134.729 33.24C134.729 32.7539 134.838 32.28 135.056 31.8182C135.299 31.3321 135.59 30.8824 135.929 30.4692L142.187 23.1047H135.493C135.347 22.8373 135.202 22.4971 135.056 22.0839C134.935 21.6707 134.874 21.221 134.874 20.7349C134.874 19.8843 135.056 19.2766 135.42 18.912C135.808 18.5232 136.317 18.3287 136.948 18.3287H148.408C148.796 18.669 149.099 19.07 149.317 19.5318C149.56 19.9936 149.681 20.5162 149.681 21.0995C149.681 21.5856 149.56 22.0717 149.317 22.5578C149.099 23.0196 148.82 23.4571 148.481 23.8703L142.369 31.2348H149.499C149.645 31.5022 149.778 31.8425 149.899 32.2557C150.045 32.6688 150.118 33.1185 150.118 33.6046C150.118 34.4553 149.924 35.0751 149.536 35.464C149.172 35.8285 148.675 36.0108 148.044 36.0108H136.002Z" fill="#3B4758"/>
<path d="M145.984 4.85294C145.984 3.55345 147.037 2.5 148.337 2.5C149.636 2.5 150.689 3.55345 150.689 4.85294V9.55882C150.689 10.8583 149.636 11.9118 148.337 11.9118C147.037 11.9118 145.984 10.8583 145.984 9.55882V4.85294Z" fill="#FFC045"/>
<path d="M136.689 10.6517C135.77 9.73286 135.77 8.24306 136.689 7.32418C137.608 6.4053 139.098 6.4053 140.017 7.32418L143.344 10.6517C144.263 11.5706 144.263 13.0604 143.344 13.9793C142.425 14.8982 140.936 14.8982 140.017 13.9793L136.689 10.6517Z" fill="#FFC045"/>
<path d="M153.327 27.2895C152.409 26.3706 152.409 24.8808 153.327 23.9619C154.246 23.0431 155.736 23.0431 156.655 23.9619L159.983 27.2895C160.901 28.2084 160.901 29.6982 159.983 30.6171C159.064 31.5359 157.574 31.5359 156.655 30.6171L153.327 27.2895Z" fill="#FFC045"/>
<path d="M157.748 21.3235C156.449 21.3235 155.395 20.2701 155.395 18.9706C155.395 17.6711 156.449 16.6176 157.748 16.6176H162.454C163.754 16.6176 164.807 17.6711 164.807 18.9706C164.807 20.2701 163.754 21.3235 162.454 21.3235H157.748Z" fill="#FFC045"/>
<path d="M156.655 13.9793C155.736 14.8982 154.246 14.8982 153.327 13.9793C152.408 13.0604 152.408 11.5706 153.327 10.6518L156.655 7.32419C157.574 6.40531 159.063 6.40531 159.982 7.32419C160.901 8.24307 160.901 9.73287 159.982 10.6518L156.655 13.9793Z" fill="#FFC045"/>
</svg>
